# xmcd
#
# Track frame offsets:
# 150
# 10325
# 22885
# 42615
# 55476
# 73452
# 91313
# 104364
# 114953
# 131457
# 148655
# 163411
# 180901
# 189157
# 202803
# 217814
# 229698
# 240688
#
# Disc length: 3396 seconds
#
#
# Revision: 0
# Processed by: cddbd v1.5.1PL0 Copyright (c) Steve Scherf et al.
# Submitted via: FreeRIP 2.91 
#
DISCID=f60d4212
DTITLE=Claire Johnston - Africa Blue
DYEAR=2004
DGENRE=Blues
TTITLE0=Sway
TTITLE1=These boots are made for walking
TTITLE2=Africa Blue - featuring Mango Groove
TTITLE3=Rum and Coca Cola
TTITLE4=No, No No
TTITLE5=Africa - featuring Mango Groove
TTITLE6=Shine
TTITLE7=Perhaps
TTITLE8=African Samba
TTITLE9=Sela
TTITLE10=Yellow Bird
TTITLE11=Too darn HOT
TTITLE12=I wanna be loved by you
TTITLE13=Kilimanjaro
TTITLE14=Touch
TTITLE15=Underneath the Mango Tree
TTITLE16=Iko Iko
TTITLE17=Strange Fruit
EXTD=
EXTT0=
EXTT1=
EXTT2=
EXTT3=
EXTT4=
EXTT5=
EXTT6=
EXTT7=
EXTT8=
EXTT9=
EXTT10=
EXTT11=
EXTT12=
EXTT13=
EXTT14=
EXTT15=
EXTT16=
EXTT17=
PLAYORDER=
